<svg version="1.1" xmlns="http://www.w3.org/2000/svg" width="128px" height="128px" transform="rotate(0) scale(1, 1)">
<path d="M0 0 C-0.21484375 1.859375 -0.21484375 1.859375 -1 4 C-3.06640625 5.265625 -3.06640625 5.265625 -5.5625 6.25 C-6.38878906 6.58515625 -7.21507812 6.9203125 -8.06640625 7.265625 C-8.70449219 7.50796875 -9.34257812 7.7503125 -10 8 C-9.3709375 7.855625 -8.741875 7.71125 -8.09375 7.5625 C1.46198434 5.49017207 7.61855774 5.47452876 16.6796875 9.22265625 C17.44539063 9.47917969 18.21109375 9.73570313 19 10 C19.66 9.67 20.32 9.34 21 9 C15.09622349 6.1248748 9.46712188 4.16194152 3 3 C3 1.68 3 0.36 3 -1 C9.64552137 -1.50901866 14.4158837 -0.74490768 20.48046875 1.99609375 C23.11324495 3.04512241 25.51676434 3.51089145 28.3125 3.9375 C33.00780584 4.72736453 34.64831008 6.64831008 38 10 C42.62572213 10.09251444 46.20402405 8.5735018 50.5 6.9375 C58.66481011 3.95634317 58.66481011 3.95634317 63 5 C66.80586197 8.10314562 70.77913575 11.5582715 73 16 C72.87822238 17.54800845 72.74051822 19.09478574 72.59375 20.640625 C72.54995206 24.99226338 73.23414344 26.93325156 76.28125 30.046875 C77.66352668 31.30803791 79.07080488 32.54226575 80.5 33.75 C87.83673859 40.10850678 87.83673859 40.10850678 88.59375 44.2421875 C87.82712965 47.80293729 86.19021974 50.12533659 84 53 C84.66 53.66 85.32 54.32 86 55 C85.984375 57.06640625 85.984375 57.06640625 85.75 59.5625 C85.6111485 64.90828275 87.23249974 67.67108663 90.4921875 71.796875 C94.8462593 78.15878302 95.03341357 85.59133654 94 93 C89.6486402 107.3513598 89.6486402 107.3513598 86 111 C81.21243804 110.631726 77.94561264 109.74997245 74 107 C74.62876575 103.04672568 75.89335381 99.81587192 77.5625 96.1875 C79.75035746 90.99769859 80.85198719 87.58524934 80 82 C78.86246089 79.44663968 77.56102382 77.34153573 76 75 C75.40832031 75.09539062 74.81664063 75.19078125 74.20703125 75.2890625 C69.34668179 75.97093861 66.54811372 75.98251111 62 74 C60.741875 74.12375 59.48375 74.2475 58.1875 74.375 C55.21897744 74.47697215 54.14885505 74.10439834 51.671875 72.3671875 C49.50888705 70.31764297 47.60914401 68.51228182 46 66 C46.28515625 63.734375 46.28515625 63.734375 47 62 C51.83256305 62.41421969 53.82679218 64.46413986 57 68 C60.76603869 66.43717018 63.13639151 64.0936525 65.984375 61.2109375 C66.44483215 60.74765045 66.90528931 60.2843634 67.37969971 59.80703735 C68.84125078 58.33434102 70.29567168 56.85482597 71.75 55.375 C72.74302611 54.37193678 73.73651089 53.36932743 74.73046875 52.3671875 C77.15897941 49.91669165 79.58114675 47.4600333 82 45 C80.69667019 42.0720252 79.38379087 40.20383799 76.9609375 38.1171875 C67.30781398 29.42857258 67.30781398 29.42857258 66.390625 25.171875 C66.5424129 23.52244647 66.73774661 21.87621546 66.984375 20.23828125 C67.00592357 17.15144804 65.93984982 16.04942063 63.875 13.8125 C62.20086272 11.99111523 62.20086272 11.99111523 60 11 C54.28124621 11.31508285 49.38991 13.85278975 44.21875 16.13671875 C40.33994267 17.17702994 38.59315085 16.68847203 35 15 C33.948125 13.9171875 33.948125 13.9171875 32.875 12.8125 C31.2021184 10.78946235 31.2021184 10.78946235 29.0625 10.9375 C26.1451703 12.44036682 24.21008502 14.60574123 22 17 C23.16738606 20.56096451 23.16738606 20.56096451 25.59765625 23.28515625 C27.69864053 25.85432644 26.90391183 27.87605413 26.625 31.125 C26.86338996 38.06720462 29.2738834 40.98095843 34.14404297 45.81396484 C35.74636875 47.30371049 37.36650406 48.77454438 39.00439453 50.22509766 C39.7673584 50.90491699 40.53032227 51.58473633 41.31640625 52.28515625 C42.02224854 52.88207275 42.72809082 53.47898926 43.45532227 54.09399414 C45.42136921 56.51993511 45.30889211 57.95726536 45 61 C40.73536061 60.49365544 38.81192471 59.30172537 35.828125 56.25390625 C34.70857422 55.12178711 34.70857422 55.12178711 33.56640625 53.96679688 C32.80199219 53.17337891 32.03757813 52.37996094 31.25 51.5625 C30.08017578 50.37817383 30.08017578 50.37817383 28.88671875 49.16992188 C23.63377276 43.81191696 21.97388192 41.82347272 21.75 34.1875 C21.52087299 28.59748627 21.52087299 28.59748627 18.5 24.0625 C17.675 23.381875 16.85 22.70125 16 22 C15.1875 18.1875 15.1875 18.1875 15 15 C8.68106527 12.07456725 3.83912696 11.45305462 -3 13 C-4.33816387 13.65691681 -5.67231578 14.32215278 -7 15 C-11.94640453 14.86983146 -14.49403587 12.17982793 -18 9 C-18.0625 6.75 -18.0625 6.75 -17 4 C-11.91691885 0.87195006 -5.87599234 -1.88871182 0 0 Z M76.27734375 58.625 C75.16153352 59.74749173 74.04837334 60.87262226 72.9375 62 C72.36966797 62.57234375 71.80183594 63.1446875 71.21679688 63.734375 C69.80896411 65.15403829 68.40419752 66.57674097 67 68 C67.99 68.99 68.98 69.98 70 71 C71.27200971 69.89718873 72.54255853 68.79269231 73.8125 67.6875 C74.87404297 66.76517578 74.87404297 66.76517578 75.95703125 65.82421875 C76.96830078 64.92123047 76.96830078 64.92123047 78 64 C78.5878125 63.484375 79.175625 62.96875 79.78125 62.4375 C80.1834375 61.963125 80.585625 61.48875 81 61 C80.76956136 58.34533951 80.76956136 58.34533951 80 56 C78.48965086 55.8843203 78.48965086 55.8843203 76.27734375 58.625 Z M80 68 C80 72.76614951 81.3220871 74.18600284 84 78 C86.7436233 86.23086989 84.64223098 92.8823021 81.09375 100.53125 C79.86497854 102.85473138 79.86497854 102.85473138 80 105 C80.99 105.33 81.98 105.66 83 106 C89.365778 92.57669861 89.365778 92.57669861 88.00390625 78.2734375 C85.92442023 73.77760169 84.18205173 70.77909848 80 68 Z " fill="#85ba45" transform="translate(26,9)"/>
<path d="M0 0 C6.53039703 4.12960795 15.11704422 11.62119553 17.73706055 19.10546875 C18.1308819 21.94303025 17.32547312 23.47892721 16 26 C13.86328125 28.640625 13.86328125 28.640625 11.3125 31.25 C10.48363281 32.12140625 9.65476563 32.9928125 8.80078125 33.890625 C5.24353317 36.56972397 3.46962268 37.28559889 -1 37 C-4.05352098 35.05347701 -6.46519587 32.56895299 -9 30 C-10.41340332 28.68538819 -11.82877734 27.37289206 -13.24609375 26.0625 C-14.64583433 24.71102634 -16.04296521 23.35684466 -17.4375 22 C-18.15615234 21.32710937 -18.87480469 20.65421875 -19.61523438 19.9609375 C-22.92270711 16.72529845 -24.78711185 14.72203324 -26.1171875 10.2109375 C-25.9405382 5.37074669 -24.3898903 4.31105564 -21 1 C-15.01644907 -1.99177546 -6.30723261 -1.92503335 0 0 Z M-21 9 C-19.68 10.32 -18.36 11.64 -17 13 C-16.01 12.34 -15.02 11.68 -14 11 C-9.79993497 10.35931211 -7.43287678 10.0923414 -3.8046875 12.390625 C-0.15903986 15.48471709 2.98618663 18.59478325 5 23 C5 23.66 5 24.32 5 25 C-0.09207468 23.329163 -2.49662287 20.5432023 -5.9375 16.58203125 C-7.93403322 14.67874326 -7.93403322 14.67874326 -10.75 15.26171875 C-11.86375 15.62716797 -11.86375 15.62716797 -13 16 C-11.34136495 20.32504836 -8.128959 23.09418825 -4.875 26.25 C-4.31167969 26.80429687 -3.74835938 27.35859375 -3.16796875 27.9296875 C-1.78313972 29.29104485 -0.39216796 30.64614859 1 32 C4.03382559 30.25011425 6.81793096 28.52630849 9.375 26.125 C9.89835937 25.65320313 10.42171875 25.18140625 10.9609375 24.6953125 C12.19538497 23.00888367 12.19538497 23.00888367 12.015625 20.73046875 C9.62321572 14.29856842 3.77156292 8.58503683 -2 5 C-8.81967777 2.77680154 -16.30173307 3.20039369 -21 9 Z " fill="#85ba45" transform="translate(84,34)"/>
<path d="M0 0 C3.98711591 1.55594767 5.56022342 4.4464713 7.8125 7.9375 C9.10974903 11.50493484 9.03445515 14.69304728 7.75 18.25 C6.5625 20 6.5625 20 3.5625 22 C-0.45785732 22.44670637 -2.73371811 22.38249016 -6.3125 20.4375 C-9.16672938 17.16353101 -9.5097848 15.33708774 -9.4375 11 C-7.86846579 6.48383803 -5.41127756 0 0 0 Z M-1.4375 7 C-3.3183206 9.16140195 -3.3183206 9.16140195 -4.4375 12 C-3.74264736 14.78223378 -3.74264736 14.78223378 -2.4375 17 C-0.7875 16.67 0.8625 16.34 2.5625 16 C3.34052187 13.6984589 3.34052187 13.6984589 3.5625 11 C2.36703646 8.6549514 2.36703646 8.6549514 0.5625 7 C-0.0975 7 -0.7575 7 -1.4375 7 Z " fill="#85ba45" transform="translate(32.4375,62)"/>
<path d="M0 0 C2.71733141 0.26830793 3.80215233 0.79262297 5.703125 2.78515625 C9.32665146 8.11979243 11.09720442 11.52649391 10 18 C7.97708097 21.03437855 6.57772802 21.81161043 3.125 22.9375 C-0.71848305 23.01436966 -2.77080694 22.02763285 -6 20 C-7.7638119 16.47237619 -7.67051359 12.84021418 -7 9 C-5.10939366 5.61502218 -2.73734519 2.73734519 0 0 Z M1 7 C-1.09749995 9.35968744 -1.96905704 10.54616994 -2.1875 13.75 C-2.125625 14.4925 -2.06375 15.235 -2 16 C-0.02 16.99 -0.02 16.99 2 18 C2.99 17.34 3.98 16.68 5 16 C5.58402133 13.58582128 5.58402133 13.58582128 5 11 C3.10415891 8.68622853 3.10415891 8.68622853 1 7 Z " fill="#85ba45" transform="translate(17,36)"/>
</svg>