<svg version="1.1" xmlns="http://www.w3.org/2000/svg" width="128px" height="128px" transform="rotate(0) scale(1, 1)">
<path d="M0 0 C1.39120471 0.00015906 2.78241534 0.00585033 4.17358398 0.01586914 C4.90463852 0.01728409 5.63569305 0.01869904 6.38890076 0.02015686 C8.73253406 0.02577131 11.07607313 0.03832617 13.41967773 0.05102539 C15.00496282 0.05603853 16.59024939 0.06060176 18.17553711 0.06469727 C22.06945383 0.07574542 25.96329979 0.09301967 29.85717773 0.11352539 C29.85717773 4.07352539 29.85717773 8.03352539 29.85717773 12.11352539 C28.53717773 12.44352539 27.21717773 12.77352539 25.85717773 13.11352539 C25.85717773 14.10352539 25.85717773 15.09352539 25.85717773 16.11352539 C26.43045303 16.10464294 27.00372833 16.0957605 27.59437561 16.08660889 C33.58055616 15.99786602 39.56654873 15.93767975 45.55322266 15.89379883 C47.78507075 15.87372854 50.01686655 15.84646606 52.24853516 15.81176758 C55.46326631 15.76304868 58.6773 15.74051023 61.89233398 15.72290039 C63.38024193 15.69193268 63.38024193 15.69193268 64.89820862 15.66033936 C71.1049908 15.65834539 74.91854908 16.22494054 79.85717773 20.11352539 C83.67087692 25.57007577 84.43759365 29.50513825 84.35888672 36.07470703 C84.3669912 37.3785157 84.3669912 37.3785157 84.3752594 38.70866394 C84.38770345 41.56402284 84.37128594 44.41836497 84.35327148 47.27368164 C84.35342656 49.26712598 84.35491694 51.26057063 84.35768127 53.25401306 C84.35906328 57.4241983 84.34653911 61.59403877 84.32373047 65.76416016 C84.29532814 71.10288112 84.29809091 76.44103034 84.31082058 81.77979374 C84.31778286 85.89339562 84.30998247 90.0068659 84.29756355 94.12045097 C84.29305571 96.08878512 84.29270642 98.05713343 84.29662895 100.02546883 C84.29954701 102.77785228 84.28300641 105.52945378 84.26123047 108.28173828 C84.26573212 109.09073578 84.27023376 109.89973328 84.27487183 110.73324585 C84.18968782 117.23005278 82.74338997 121.15382203 78.12986755 125.94709778 C74.24476574 128.51892472 72.12017448 128.75109289 67.49414062 128.77636719 C66.78274429 128.78673508 66.07134796 128.79710297 65.33839417 128.80778503 C63.00160977 128.8347489 60.66671649 128.82521742 58.32983398 128.81274414 C56.69607524 128.8186577 55.06232084 128.82590637 53.42857361 128.83442688 C50.00976939 128.84628893 46.59161692 128.83963102 43.17285156 128.8203125 C38.80333167 128.79743756 34.43575801 128.82419711 30.06643009 128.86537457 C26.69387224 128.89101871 23.32177594 128.88835478 19.94915581 128.87748146 C18.33888419 128.87599998 16.72857628 128.88362442 15.11839485 128.90073204 C0.99196662 129.02645932 0.99196662 129.02645932 -3.55908203 125.37841797 C-8.2580587 120.52310856 -8.44064335 114.95412057 -8.43334961 108.50292969 C-8.44006683 107.64698212 -8.44678406 106.79103455 -8.45370483 105.90914917 C-8.47267018 103.08528809 -8.47660841 100.26166491 -8.47875977 97.43774414 C-8.48518912 95.46865238 -8.49191758 93.49956157 -8.49893188 91.5304718 C-8.51090128 87.40391832 -8.51461309 83.27744852 -8.51342773 79.15087891 C-8.51322466 73.87502782 -8.54051649 68.5997161 -8.57497215 63.32399273 C-8.59726111 59.25665342 -8.60126465 55.18944345 -8.60020828 51.12204933 C-8.60256162 49.17767289 -8.61137006 47.23329273 -8.62687302 45.28897667 C-8.64657173 42.5630405 -8.64067972 39.83826135 -8.62866211 37.11230469 C-8.63990112 36.31670639 -8.65114014 35.52110809 -8.66271973 34.70140076 C-8.60093161 29.15797525 -7.37600763 24.68972444 -4.14282227 20.11352539 C-3.15282227 19.45352539 -2.16282227 18.79352539 -1.14282227 18.11352539 C-0.4131686 15.55069797 -0.4131686 15.55069797 -0.14282227 13.11352539 C-1.13282227 13.11352539 -2.12282227 13.11352539 -3.14282227 13.11352539 C-4.39352028 10.61212937 -4.27584694 8.83959848 -4.26782227 6.05102539 C-4.27040039 5.15254883 -4.27297852 4.25407227 -4.27563477 3.32836914 C-4.06516188 -0.18157566 -3.6058788 0.13025197 0 0 Z M0.85717773 5.11352539 C0.85717773 6.10352539 0.85717773 7.09352539 0.85717773 8.11352539 C8.77717773 8.11352539 16.69717773 8.11352539 24.85717773 8.11352539 C24.85717773 7.12352539 24.85717773 6.13352539 24.85717773 5.11352539 C16.93717773 5.11352539 9.01717773 5.11352539 0.85717773 5.11352539 Z M4.85717773 13.11352539 C4.85717773 14.10352539 4.85717773 15.09352539 4.85717773 16.11352539 C10.13717773 16.11352539 15.41717773 16.11352539 20.85717773 16.11352539 C20.85717773 15.12352539 20.85717773 14.13352539 20.85717773 13.11352539 C15.57717773 13.11352539 10.29717773 13.11352539 4.85717773 13.11352539 Z M-1.77372742 26.70053101 C-3.38753892 30.72357558 -3.56489885 34.23918383 -3.53100586 38.50219727 C-3.53626282 39.32248917 -3.54151978 40.14278107 -3.54693604 40.9879303 C-3.56008707 43.68624183 -3.55141544 46.38395836 -3.54125977 49.08227539 C-3.54328191 50.96504835 -3.54619452 52.84782054 -3.54995728 54.73059082 C-3.55437399 58.67130002 -3.54797056 62.61180484 -3.53393555 66.55249023 C-3.51684408 71.59640523 -3.52668876 76.63984127 -3.54465294 81.68373871 C-3.55550838 85.57000315 -3.55203635 89.45615459 -3.54426956 93.34242249 C-3.54227243 95.20190996 -3.5447097 97.0614078 -3.55170822 98.92088318 C-3.5593517 101.52248197 -3.54767821 104.1233118 -3.53100586 106.72485352 C-3.53707855 107.48866837 -3.54315125 108.25248322 -3.54940796 109.03944397 C-3.49309439 113.7976391 -2.71254023 117.09540893 -0.14282227 121.11352539 C3.48648062 123.53306065 5.22072209 123.38227181 9.54418945 123.41992188 C10.55692429 123.43240715 10.55692429 123.43240715 11.59011841 123.44514465 C13.82242599 123.46924296 16.05444136 123.47801644 18.28686523 123.48461914 C19.84001757 123.49358579 21.39316902 123.50270764 22.94631958 123.51197815 C26.20292256 123.52847033 29.4594227 123.53616863 32.71606445 123.5390625 C36.88490969 123.54444598 41.05278576 123.58212217 45.22135735 123.62780666 C48.42989614 123.65758052 51.63820168 123.66478611 54.84686661 123.66578865 C56.3834591 123.66999055 57.9200523 123.68242385 59.45650864 123.7033062 C61.60885166 123.73022988 63.75895032 123.72539526 65.91137695 123.71289062 C67.13476776 123.71796127 68.35815857 123.72303192 69.61862183 123.72825623 C73.77748911 122.93883525 75.24102563 121.37087727 77.85717773 118.11352539 C82.85797791 103.11112487 84.58526626 84.03898174 78.85717773 69.11352539 C73.40085856 59.50669181 65.85813049 51.57313895 58.04154587 43.84814072 C56.43163812 42.25039542 54.846987 40.63056456 53.26443481 39.00576782 C43.84079194 29.43860247 34.57660112 20.23788369 20.46043396 19.54074097 C7.75200449 19.561572 7.75200449 19.561572 -1.77372742 26.70053101 Z M38.85717773 21.11352539 C41.06496494 24.64678858 43.09347407 27.64370689 47.2565918 28.75268555 C50.01674853 28.95436182 52.71539846 28.98525892 55.48217773 28.92602539 C57.34937615 28.92474649 59.21659836 28.93096959 61.08374023 28.94555664 C61.90438965 28.93242432 62.72503906 28.91929199 63.57055664 28.90576172 C66.18117134 29.14296363 67.70989301 29.60483946 69.85717773 31.11352539 C70.99983102 33.93386608 70.95806306 36.65273401 70.92749023 39.66821289 C70.93780273 40.5305957 70.94811523 41.39297852 70.95874023 42.28149414 C70.97429716 44.07831878 70.96668471 45.87550121 70.93530273 47.67211914 C71.01333975 52.77018536 71.01333975 52.77018536 73.47338867 57.08325195 C75.2058994 58.56963269 76.93367578 59.88731637 78.85717773 61.11352539 C78.93169137 56.80854769 78.98594997 52.50391805 79.02197266 48.19848633 C79.03699969 46.73585464 79.05742729 45.27326757 79.08349609 43.81079102 C79.12015041 41.70065259 79.1369645 39.59111313 79.15014648 37.48071289 C79.17371216 35.57974854 79.17371216 35.57974854 79.19775391 33.64038086 C78.81519421 29.67876269 78.0963977 27.40242573 75.85717773 24.11352539 C71.40822518 21.08449368 67.79545441 20.75478642 62.48999023 20.82055664 C61.81040253 20.82480148 61.13081482 20.82904633 60.43063354 20.8334198 C58.28072849 20.85008273 56.13179475 20.88770823 53.98217773 20.92602539 C52.51604553 20.94108839 51.04989849 20.95477396 49.58374023 20.96704102 C46.00790899 20.99994459 42.43263832 21.05163876 38.85717773 21.11352539 Z M51.85717773 34.11352539 C55.9524436 39.00786752 60.12074859 43.82072873 64.85717773 48.11352539 C65.18717773 48.11352539 65.51717773 48.11352539 65.85717773 48.11352539 C65.85717773 43.49352539 65.85717773 38.87352539 65.85717773 34.11352539 C61.23717773 34.11352539 56.61717773 34.11352539 51.85717773 34.11352539 Z " fill="#85ba45" transform="translate(26.142822265625,-0.113525390625)"/>
<path d="M0 0 C7.67066042 -1.66772481 15.20268334 -1.88250043 22.02331543 2.39141846 C29.24021124 8.16686836 35.49489789 14.91584534 41.7286377 21.71746826 C44.31350213 24.51221485 46.96355741 27.24371688 49.60705566 29.98284912 C66.17413907 47.23194294 66.17413907 47.23194294 66.22424316 57.49847412 C66.22994324 58.3938237 66.23564331 59.28917328 66.24151611 60.21165466 C66.25097207 62.10892554 66.25750245 64.00621288 66.26135254 65.90350342 C66.27104455 68.80068817 66.30205648 71.69715949 66.33361816 74.59417725 C66.34014959 76.43727199 66.34539951 78.28037181 66.34924316 80.12347412 C66.36158997 80.98821854 66.37393677 81.85296295 66.38665771 82.74391174 C66.36457196 88.7344495 65.36809156 92.16321948 61.02111816 96.51019287 C58.3019104 96.77761841 58.3019104 96.77761841 54.7989502 96.80072021 C52.83648849 96.81985977 52.83648849 96.81985977 50.8343811 96.83938599 C49.39923245 96.8424435 47.96408183 96.84467134 46.52893066 96.84613037 C45.06163399 96.85255522 43.59433862 96.85928335 42.12704468 96.86630249 C39.04857412 96.87828912 35.97021589 96.88198197 32.89172363 96.88079834 C28.94818961 96.88059521 25.00537677 96.90788377 21.06201363 96.94234276 C18.03022968 96.96459037 14.99861977 96.96863653 11.96676254 96.96757889 C10.51309603 96.96993861 9.05942499 96.97878311 7.60583878 96.99424362 C5.57134534 97.01385389 3.53664086 97.00555584 1.5020752 96.99603271 C0.34450714 96.99888275 -0.81306091 97.00173279 -2.00570679 97.00466919 C-5.62534478 96.40267797 -6.76949525 95.38567833 -8.97888184 92.51019287 C-10.18284636 88.89829929 -10.13431257 85.58965336 -10.14001465 81.82928467 C-10.14497955 81.04844513 -10.14994446 80.26760559 -10.15505981 79.46310425 C-10.16967079 76.87853108 -10.17648191 74.29401931 -10.18200684 71.70941162 C-10.18775948 69.91203307 -10.1935172 68.11465453 -10.19927979 66.317276 C-10.20978696 62.54702468 -10.21563138 58.77679466 -10.21911621 55.00653076 C-10.22459819 50.18116692 -10.24862106 45.35608564 -10.27708817 40.53081036 C-10.29573517 36.81699304 -10.30092126 33.10324349 -10.30245209 29.38938332 C-10.30547484 27.61082223 -10.31349065 25.83226224 -10.32663727 24.05374718 C-10.34373988 21.56204267 -10.34180733 19.07102447 -10.33532715 16.57928467 C-10.34454193 15.84815964 -10.35375671 15.11703461 -10.36325073 14.36375427 C-10.32524321 9.68573631 -9.45893616 6.47912159 -6.97888184 2.51019287 C-4.69646815 1.12561322 -2.56299243 0.66078754 0 0 Z M-4.97888184 9.51019287 C-5.36362018 12.16753024 -5.50679936 14.40770518 -5.46472168 17.06097412 C-5.46851837 17.81591156 -5.47231506 18.570849 -5.47622681 19.34866333 C-5.48362725 21.84043119 -5.46225812 24.33102891 -5.43981934 26.82269287 C-5.43743447 28.5561713 -5.43652968 30.28965234 -5.43704224 32.02313232 C-5.4339151 35.65472616 -5.41735685 39.28592497 -5.39050293 42.91741943 C-5.35652319 47.57142266 -5.34887443 52.22499187 -5.3503933 56.87910461 C-5.34984931 60.45819234 -5.33887758 64.03718527 -5.32439041 67.61624146 C-5.31802813 69.33223758 -5.31408485 71.04824443 -5.312603 72.76425171 C-5.3082639 75.16282422 -5.29075013 77.56093784 -5.26940918 79.95941162 C-5.27031555 80.66810394 -5.27122192 81.37679626 -5.27215576 82.10696411 C-5.22093543 86.04621259 -4.8022955 87.86336554 -2.97888184 91.51019287 C17.48111816 91.51019287 37.94111816 91.51019287 59.02111816 91.51019287 C64.63785529 80.27671863 65.88880163 65.46000255 62.26855469 53.40704346 C57.86546293 43.18199496 48.95815239 34.92810379 41.13075638 27.22312546 C39.59015851 25.70414145 38.065916 24.17002343 36.54257202 22.63375854 C24.42777338 9.81749884 24.42777338 9.81749884 8.526474 3.94996643 C2.83361746 4.0739098 -1.34785166 4.72965873 -4.97888184 9.51019287 Z " fill="#85ba45" transform="translate(35.9788818359375,23.48980712890625)"/>
<path d="M0 0 C2.38378906 0.15527344 2.38378906 0.15527344 5 1 C6.56152344 2.96191406 6.56152344 2.96191406 7.859375 5.515625 C8.33503906 6.43730469 8.81070313 7.35898438 9.30078125 8.30859375 C9.77902344 9.27925781 10.25726563 10.24992187 10.75 11.25 C11.24371094 12.20519531 11.73742187 13.16039063 12.24609375 14.14453125 C15.65044653 20.85063989 17.64811481 26.35224523 17 34 C15.64169836 38.00846624 13.99473783 41.11894649 10.8125 43.9375 C5.58692056 45.91160779 1.01687981 46.72303238 -4.3125 44.8125 C-8.36680687 42.07820002 -11.06434115 39.50826526 -13 35 C-15.0388406 22.81437131 -6.73138191 11.16435008 -1 1 C-0.67 0.67 -0.34 0.34 0 0 Z M1 8 C-0.32805745 10.49275476 -1.63722261 12.99279848 -2.9375 15.5 C-3.31068359 16.19609375 -3.68386719 16.8921875 -4.06835938 17.609375 C-6.57706824 22.49118685 -7.74877007 26.49631186 -8 32 C-6.49717203 36.05763553 -5.61841259 37.58772494 -2 40 C-1.01 40 -0.02 40 1 40 C1.0825 39.2575 1.165 38.515 1.25 37.75 C2.16752658 34.38573588 3.26219512 33.12940379 6 31 C8.75 30.25 8.75 30.25 11 30 C11.33 30.66 11.66 31.32 12 32 C11.04462155 23.36259894 7.64093282 16.25693033 3 9 C2.34 8.67 1.68 8.34 1 8 Z M10 32 C11 35 11 35 11 35 Z M9 35 C10 37 10 37 10 37 Z " fill="#85ba45" transform="translate(60,62)"/>
</svg>