<svg version="1.1" xmlns="http://www.w3.org/2000/svg" width="128px" height="128px" transform="rotate(0) scale(1, 1)">
<path d="M0 0 C5.72777145 5.2802893 7.58100035 11.59814421 7.9375 19.1328125 C7.78193571 26.51754085 5.5724859 32.04396189 0.5625 37.48828125 C-4.19466969 41.85802992 -7.89580519 44.3828125 -14.5 44.3828125 C-14.5 47.6828125 -14.5 50.9828125 -14.5 54.3828125 C-13.324375 54.5684375 -13.324375 54.5684375 -12.125 54.7578125 C-9.5 55.3828125 -9.5 55.3828125 -7.5 57.3828125 C-6.9434629 62.61426126 -6.9434629 62.61426126 -8.8125 65.1953125 C-10.5 66.3828125 -10.5 66.3828125 -13.5 67.3828125 C-13.83 79.5928125 -14.16 91.8028125 -14.5 104.3828125 C-12.85 104.7128125 -11.2 105.0428125 -9.5 105.3828125 C-7.5 108.3828125 -7.5 108.3828125 -7.6875 111.9453125 C-8.5 115.3828125 -8.5 115.3828125 -11.5 117.3828125 C-14.68113708 117.65023804 -14.68113708 117.65023804 -18.66186523 117.67333984 C-19.38739594 117.68005707 -20.11292664 117.68677429 -20.86044312 117.69369507 C-23.25989623 117.71270001 -25.65907005 117.71660035 -28.05859375 117.71875 C-29.72624324 117.72517577 -31.39389159 117.73190397 -33.0615387 117.73892212 C-36.55773533 117.75090081 -40.05383311 117.7546023 -43.55004883 117.75341797 C-48.03047835 117.75321465 -52.51027451 117.78052748 -56.99055386 117.81496239 C-60.4349509 117.83719659 -63.87919462 117.8412566 -67.32365608 117.84019852 C-68.97548673 117.84255932 -70.6273213 117.85140981 -72.27908134 117.86686325 C-74.58941944 117.88645558 -76.89838006 117.8807133 -79.20874023 117.86865234 C-80.52317612 117.87150238 -81.837612 117.87435242 -83.19187927 117.87728882 C-86.5 117.3828125 -86.5 117.3828125 -88.92445374 115.54385376 C-90.5 113.3828125 -90.5 113.3828125 -91 110.3203125 C-90.5 107.3828125 -90.5 107.3828125 -88.6875 105.5078125 C-86.5 104.3828125 -86.5 104.3828125 -83.5 104.3828125 C-83.83 92.1728125 -84.16 79.9628125 -84.5 67.3828125 C-86.15 66.7228125 -87.8 66.0628125 -89.5 65.3828125 C-90.89935013 62.58411223 -90.75265405 60.47782458 -90.5 57.3828125 C-89.25 55.5078125 -89.25 55.5078125 -87.5 54.3828125 C-86.18 54.3828125 -84.86 54.3828125 -83.5 54.3828125 C-83.5 41.8428125 -83.5 29.3028125 -83.5 16.3828125 C-85.15 16.0528125 -86.8 15.7228125 -88.5 15.3828125 C-90.5 13.3828125 -90.5 13.3828125 -90.8125 10.4453125 C-90.5 7.3828125 -90.5 7.3828125 -89.27792358 5.71347046 C-86.96448327 3.98201372 -85.61424102 4.01631719 -82.74072266 4.02978516 C-81.29374496 4.02430161 -81.29374496 4.02430161 -79.8175354 4.01870728 C-78.77688934 4.02800262 -77.73624329 4.03729797 -76.6640625 4.046875 C-74.46353872 4.03436227 -72.26301787 4.02132514 -70.0625 4.0078125 C-66.59071519 4.00388069 -63.11921833 4.00783685 -59.64746094 4.02246094 C-56.29838944 4.03102634 -52.9505276 4.00935391 -49.6015625 3.984375 C-48.5649649 3.99771881 -47.52836731 4.01106262 -46.46035767 4.02481079 C-40.46082352 4.0009132 -40.46082352 4.0009132 -35.42138672 0.92822266 C-34.47030029 -0.33175537 -34.47030029 -0.33175537 -33.5 -1.6171875 C-22.87373502 -9.27170041 -10.09645579 -7.8060561 0 0 Z M-35.05859375 5.5 C-39.31559652 11.06063776 -40.37059598 16.58732723 -39.5 23.3828125 C-37.34666116 30.32134876 -33.52754858 35.50573238 -27.375 39.3203125 C-21.64822997 41.33928464 -14.88214583 41.60241767 -9.16015625 39.5390625 C-3.27630785 36.19622349 1.35772258 30.80964477 3.5 24.3828125 C4.24059617 17.5474741 3.65451179 11.98792199 -0.5 6.3828125 C-5.44450111 1.04906343 -9.96542928 -2.11334631 -17.3125 -2.9296875 C-24.68813118 -2.2065864 -30.0444432 -0.06093727 -35.05859375 5.5 Z M-85.5 8.3828125 C-85.5 9.7028125 -85.5 11.0228125 -85.5 12.3828125 C-71.31 12.3828125 -57.12 12.3828125 -42.5 12.3828125 C-42.17 11.0628125 -41.84 9.7428125 -41.5 8.3828125 C-56.02 8.3828125 -70.54 8.3828125 -85.5 8.3828125 Z M-79.5 16.3828125 C-79.5 28.9228125 -79.5 41.4628125 -79.5 54.3828125 C-63.99 54.3828125 -48.48 54.3828125 -32.5 54.3828125 C-32.83 55.3728125 -33.16 56.3628125 -33.5 57.3828125 C-50.66 57.7128125 -67.82 58.0428125 -85.5 58.3828125 C-85.83 59.7028125 -86.16 61.0228125 -86.5 62.3828125 C-83.57917545 63.84322478 -81.01698631 63.50210046 -77.75537109 63.49633789 C-77.06257553 63.49648392 -76.36977997 63.49662994 -75.6559906 63.4967804 C-73.36177459 63.49608268 -71.06763936 63.48829692 -68.7734375 63.48046875 C-67.18445887 63.47860407 -65.59547966 63.4771804 -64.00650024 63.47618103 C-59.82090675 63.47235981 -55.63534787 63.46253289 -51.44976807 63.45147705 C-47.18005847 63.44125444 -42.9103433 63.43668159 -38.640625 63.43164062 C-30.26040077 63.42091028 -21.88020469 63.40383858 -13.5 63.3828125 C-12.84 62.0628125 -12.18 60.7428125 -11.5 59.3828125 C-12.71428988 57.93892679 -12.71428988 57.93892679 -16.31640625 58.28515625 C-17.89846682 58.29183161 -19.48051159 58.30379375 -21.0625 58.3203125 C-21.86880859 58.32482422 -22.67511719 58.32933594 -23.50585938 58.33398438 C-25.50393756 58.34580732 -27.50197783 58.36374336 -29.5 58.3828125 C-29.5 57.0628125 -29.5 55.7428125 -29.5 54.3828125 C-25.87 54.3828125 -22.24 54.3828125 -18.5 54.3828125 C-18.5 51.0828125 -18.5 47.7828125 -18.5 44.3828125 C-19.840625 44.1353125 -21.18125 43.8878125 -22.5625 43.6328125 C-30.06696553 41.93635561 -34.97380527 38.7949217 -39.5 32.3828125 C-42.53239457 26.64292277 -42.73184756 23.2961845 -43.5 16.3828125 C-55.38 16.3828125 -67.26 16.3828125 -79.5 16.3828125 Z M-79.5 67.3828125 C-79.5 79.5928125 -79.5 91.8028125 -79.5 104.3828125 C-78.51 104.7128125 -77.52 105.0428125 -76.5 105.3828125 C-76.5 106.0428125 -76.5 106.7028125 -76.5 107.3828125 C-80.955 107.8778125 -80.955 107.8778125 -85.5 108.3828125 C-85.83 109.7028125 -86.16 111.0228125 -86.5 112.3828125 C-85.39442383 113.71409362 -85.39442383 113.71409362 -82.60838318 113.50306702 C-80.66645836 113.4997361 -80.66645836 113.4997361 -78.68530273 113.49633789 C-77.97314606 113.49648392 -77.26098938 113.49662994 -76.5272522 113.4967804 C-74.16266888 113.4960812 -71.79816339 113.48828856 -69.43359375 113.48046875 C-67.79834537 113.47860459 -66.16309643 113.47718068 -64.52784729 113.47618103 C-60.21565215 113.47235568 -55.90349048 113.46252525 -51.59130859 113.45147705 C-47.19434054 113.4412633 -42.79736711 113.43668349 -38.40039062 113.43164062 C-29.76691169 113.42090299 -21.13346 113.40382637 -12.5 113.3828125 C-11.90929986 111.43677976 -11.90929986 111.43677976 -11.5 109.3828125 C-12.55202528 108.1069928 -12.55202528 108.1069928 -14.93605042 108.26255798 C-16.55820717 108.2658889 -16.55820717 108.2658889 -18.21313477 108.26928711 C-20.04492027 108.26940041 -20.04492027 108.26940041 -21.91371155 108.26951599 C-23.25627686 108.27462339 -24.59884175 108.27983939 -25.94140625 108.28515625 C-27.30761158 108.28702051 -28.67381757 108.28844437 -30.0400238 108.28944397 C-33.64201695 108.29326856 -37.24397 108.30309833 -40.84594727 108.31414795 C-44.51903745 108.32436334 -48.19213409 108.32894186 -51.86523438 108.33398438 C-59.07684123 108.34472066 -66.288415 108.36179636 -73.5 108.3828125 C-73.5 107.0628125 -73.5 105.7428125 -73.5 104.3828125 C-55.35 104.3828125 -37.2 104.3828125 -18.5 104.3828125 C-18.5 92.1728125 -18.5 79.9628125 -18.5 67.3828125 C-38.63 67.3828125 -58.76 67.3828125 -79.5 67.3828125 Z " fill="#85ba45" transform="translate(105.5,8.6171875)"/>
<path d="M0 0 C2.41396125 0.29325341 3.64074044 0.59003205 5.2644043 2.44287109 C5.78901245 3.34900146 5.78901245 3.34900146 6.32421875 4.2734375 C6.90719727 5.2634375 6.90719727 5.2634375 7.50195312 6.2734375 C7.89318359 6.96695312 8.28441406 7.66046875 8.6875 8.375 C9.09033203 9.06078125 9.49316406 9.7465625 9.90820312 10.453125 C13.07017692 15.89786379 14.90371159 20.53968338 14 27 C11.98497111 30.75212276 10.54533858 32.63644095 7 35 C1.91253742 35.6772783 -2.55682364 35.82467221 -7.0625 33.25 C-10.4776635 29.28400367 -11.380226 26.65009671 -11.33227539 21.29541016 C-10.69496147 16.8927463 -8.32146831 13.32539263 -6.0625 9.5625 C-5.59392578 8.74845703 -5.12535156 7.93441406 -4.64257812 7.09570312 C-1.25979663 1.25979663 -1.25979663 1.25979663 0 0 Z M1 6 C-0.34989131 8.19959969 -1.6795172 10.407838 -3 12.625 C-3.3815625 13.24246094 -3.763125 13.85992188 -4.15625 14.49609375 C-6.48674015 18.44960383 -7.67903162 21.28073025 -7 26 C-4.88594948 28.64256316 -3.0746509 30.44534147 -0.0625 32 C3.17555318 32 5.27627901 30.65791712 8 29 C10.37669746 25.43495381 10.48190008 24.20658615 10 20 C8.89953761 17.39207431 7.48601504 15.0297338 6 12.625 C5.42765625 11.66400391 5.42765625 11.66400391 4.84375 10.68359375 C3.90749848 9.11537245 2.95532843 7.55667355 2 6 C1.67 6 1.34 6 1 6 Z " fill="#85ba45" transform="translate(86,10)"/>
<path d="M0 0 C0.99 0.33 1.98 0.66 3 1 C3 11.23 3 21.46 3 32 C1.515 32.495 1.515 32.495 0 33 C-1.90849948 31.09150052 -1.13059633 27.68521226 -1.1328125 25.15625 C-1.13376923 24.47195923 -1.13472595 23.78766846 -1.13571167 23.0826416 C-1.1363933 21.63338123 -1.13454023 20.18411782 -1.13037109 18.73486328 C-1.12502252 16.50937072 -1.1303166 14.28407999 -1.13671875 12.05859375 C-1.13605797 10.65364539 -1.1347768 9.24869715 -1.1328125 7.84375 C-1.13168457 6.55662109 -1.13055664 5.26949219 -1.12939453 3.94335938 C-1 1 -1 1 0 0 Z " fill="#85ba45" transform="translate(34,79)"/>
<path d="M0 0 C0.22732116 2.80362763 0.34081872 4.46186517 -1.1875 6.875 C-3 8 -3 8 -5.6875 7.6875 C-6.450625 7.460625 -7.21375 7.23375 -8 7 C-6.56389554 2.69168661 -4.72692072 0 0 0 Z " fill="#85ba45" transform="translate(95,31)"/>
</svg>