<svg version="1.1" xmlns="http://www.w3.org/2000/svg" width="128px" height="128px" transform="rotate(0) scale(1, 1)">
<path d="M0 0 C0.80759766 -0.020625 1.61519531 -0.04125 2.44726562 -0.0625 C7.18542792 -0.09354447 10.35145816 0.14499167 14.1875 3.25 C15.45925734 5.79351469 15.33097717 7.78692747 15.4375 10.625 C15.75054426 15.25276524 15.75054426 15.25276524 18.6875 18.8125 C19.5125 19.286875 20.3375 19.76125 21.1875 20.25 C22.40109794 22.67719588 22.2685492 24.16392823 22.22265625 26.87109375 C22.04632893 40.85401158 22.04632893 40.85401158 28.9140625 52.59375 C31.72839296 55.88197115 33.63212704 59.36398061 35.625 63.1875 C35.96668213 63.82743896 36.30836426 64.46737793 36.66040039 65.12670898 C39.67625579 70.8970712 40.86236728 75.70992258 40.1875 82.25 C38.08394363 88.67138262 34.94951408 93.55897097 29.125 97.125 C26.1875 98.25 26.1875 98.25 22.1875 98.25 C22.23970703 99.55324219 22.23970703 99.55324219 22.29296875 100.8828125 C22.57056225 112.70036455 22.57056225 112.70036455 19.1875 117.25 C14.36022686 121.60631966 11.80312388 122.37718501 5.35449219 122.42700195 C4.65182724 122.43357315 3.94916229 122.44014435 3.22520447 122.44691467 C0.89492692 122.46665808 -1.43528609 122.47831368 -3.765625 122.48828125 C-4.561679 122.49235678 -5.357733 122.4964323 -6.17790985 122.50063133 C-10.39285524 122.52149841 -14.60776802 122.53579627 -18.82275391 122.54516602 C-23.17182793 122.55622049 -27.5203889 122.590607 -31.86928177 122.63033772 C-35.21680639 122.65651534 -38.56420912 122.66485894 -41.91182709 122.66844749 C-43.51456917 122.67331201 -45.11730586 122.68492225 -46.71994781 122.70348549 C-48.9676798 122.72789835 -51.21408941 122.72690858 -53.46191406 122.7199707 C-55.37813568 122.72877007 -55.37813568 122.72877007 -57.33306885 122.73774719 C-62.25805339 122.0473621 -65.37247217 119.88865236 -68.625 116.1875 C-70.74103619 112.7350199 -70.95259533 109.85193015 -71.00537109 105.89575195 C-71.02143402 104.80063797 -71.03749695 103.70552399 -71.05404663 102.57722473 C-71.098594 97.56394108 -71.13957027 92.55078897 -71.16259766 87.53735352 C-71.1791437 84.89631327 -71.20641539 82.25531756 -71.24462891 79.61450195 C-71.299508 75.80135931 -71.32129118 71.98926612 -71.3359375 68.17578125 C-71.35860687 67.00155106 -71.38127625 65.82732086 -71.40463257 64.61750793 C-71.38641846 57.51809239 -70.60457432 52.65649302 -65.8125 47.25 C-63.54638672 45.140625 -63.54638672 45.140625 -61.1171875 43.5 C-60.15651367 42.84128906 -59.19583984 42.18257812 -58.20605469 41.50390625 C-57.40258606 40.97047607 -57.40258606 40.97047607 -56.58288574 40.42626953 C-54.61892588 39.12138659 -52.67126448 37.79396696 -50.72363281 36.46484375 C-46.93503814 33.88888102 -43.12453855 31.34768122 -39.30371094 28.81982422 C-37.71217187 27.76394347 -36.12399872 26.70297339 -34.5390625 25.63720703 C-32.22337434 24.08028636 -29.89820985 22.53858673 -27.5703125 21 C-26.86504425 20.52199951 -26.159776 20.04399902 -25.43313599 19.55151367 C-21.79489733 17.17293875 -19.3300384 15.5844649 -14.8125 16.25 C-14.85890625 15.50234375 -14.9053125 14.7546875 -14.953125 13.984375 C-15.25074701 5.86354582 -15.25074701 5.86354582 -12.9375 2.625 C-8.67874733 -0.13066349 -4.95495984 0.03118779 0 0 Z M-9.8125 8.25 C-9.8125 10.89 -9.8125 13.53 -9.8125 16.25 C-3.2125 16.25 3.3875 16.25 10.1875 16.25 C10.1875 13.61 10.1875 10.97 10.1875 8.25 C7.62801001 5.69051001 5.91542805 5.98931269 2.421875 5.9765625 C1.31585938 5.98816406 1.31585938 5.98816406 0.1875 6 C-0.54984375 5.99226562 -1.2871875 5.98453125 -2.046875 5.9765625 C-6.39671903 5.83991135 -6.39671903 5.83991135 -9.8125 8.25 Z M-27.8125 28.25 C-29.84408785 29.60526338 -31.89590883 30.92588109 -33.95075989 32.24557495 C-36.96958409 34.18979751 -39.95864915 36.1776057 -42.94897461 38.1652832 C-44.49090112 39.1853269 -46.03752938 40.19829654 -47.58862305 41.2043457 C-49.86148058 42.68001941 -52.11727781 44.17904559 -54.37109375 45.68359375 C-55.05964951 46.12344101 -55.74820526 46.56328827 -56.45762634 47.01646423 C-61.27194135 50.28085196 -64.17257058 53.59574465 -65.8125 59.25 C-66.32857773 63.0262308 -66.35086581 66.73215173 -66.30859375 70.5390625 C-66.31004898 71.60111908 -66.31150421 72.66317566 -66.31300354 73.75741577 C-66.31135091 75.99130003 -66.29986142 78.22519643 -66.27905273 80.45898438 C-66.25002903 83.87158636 -66.25847202 87.28263934 -66.27148438 90.6953125 C-66.26524821 92.87240335 -66.25685824 95.04948933 -66.24609375 97.2265625 C-66.24902939 98.24231354 -66.25196503 99.25806458 -66.25498962 100.30459595 C-66.18415836 105.63608987 -66.01963689 109.76185028 -62.8125 114.25 C-58.87971487 117.17164895 -56.02540779 117.62823598 -51.17382812 117.63818359 C-50.52764023 117.64344055 -49.88145233 117.64869751 -49.21568298 117.65411377 C-47.09145539 117.6672579 -44.96798448 117.65859631 -42.84375 117.6484375 C-41.36071632 117.65045986 -39.87768361 117.65337265 -38.39465332 117.65713501 C-35.29116316 117.66155077 -32.18793257 117.65515169 -29.08447266 117.64111328 C-25.11318549 117.62402154 -21.14250663 117.63386678 -17.17124176 117.65183067 C-14.11024419 117.66268893 -11.04939003 117.65921287 -7.98838806 117.6514473 C-6.52440824 117.64945092 -5.06041525 117.65188478 -3.59645081 117.65888596 C-1.54767538 117.66653447 0.50012503 117.65485049 2.54882812 117.63818359 C4.29492371 117.63460342 4.29492371 117.63460342 6.07629395 117.63095093 C9.55673676 117.20478889 11.41186432 116.36478656 14.1875 114.25 C17.15358593 109.03377992 17.49390871 105.0717654 17.1875 99.25 C16.52363281 99.01925781 15.85976562 98.78851563 15.17578125 98.55078125 C8.60042012 96.12221721 4.84484812 93.57168514 0.4375 88.0625 C-2.26669101 81.97807022 -2.45893163 76.25384146 -0.375 69.9375 C2.72852879 62.36060903 7.05746776 55.05201656 12.26171875 48.73046875 C17.38054283 42.46951354 17.87839737 37.40916254 17.62890625 29.5703125 C17.23170281 26.58249903 16.85568932 24.72537769 15.1875 22.25 C10.94426742 20.12838371 5.49072006 20.85858543 0.82348633 20.79003906 C-0.54308539 20.76365054 -1.90946674 20.72296942 -3.27514648 20.66699219 C-13.83416808 20.23994929 -19.48381336 21.97887708 -27.8125 28.25 Z M18.1875 48.25 C6.22077661 63.78758035 6.22077661 63.78758035 3.1875 82.25 C4.88134951 87.11234447 7.5743499 90.30216773 12.19921875 92.58984375 C16.58311536 94.04540078 20.80763905 94.08225 25.17578125 92.5546875 C29.56060965 90.32002121 32.13984322 87.67293865 34.1875 83.25 C36.20364236 75.17027161 32.3829557 68.69276534 28.4296875 61.90234375 C25.5853141 57.20064614 22.65489071 52.52142334 19.1875 48.25 C18.8575 48.25 18.5275 48.25 18.1875 48.25 Z " fill="#85ba45" transform="translate(83.8125,5.75)"/>
<path d="M0 0 C2.54102222 1.66480766 2.97382268 2.9263763 4 5.8125 C4 9.45121591 3.12738519 10.64090559 0.77441406 13.31176758 C-2.96456495 16.86914786 -7.33317951 19.59842898 -11.625 22.4375 C-13.02685547 23.38206055 -13.02685547 23.38206055 -14.45703125 24.34570312 C-17.29301091 26.24874327 -20.14494297 28.12573219 -23 30 C-23.99741211 30.66902344 -24.99482422 31.33804688 -26.02246094 32.02734375 C-27.47700684 32.98640625 -27.47700684 32.98640625 -28.9609375 33.96484375 C-29.83282715 34.54484131 -30.7047168 35.12483887 -31.60302734 35.72241211 C-34.05112715 37.0272508 -35.27564292 37.41235396 -38 37.125 C-42.5483871 35.41935484 -42.5483871 35.41935484 -44 33 C-44.9375 29.625 -44.9375 29.625 -45 26 C-41.72204136 20.38744873 -35.9485463 17.5038248 -30.5625 14.1875 C-29.57636719 13.57382568 -28.59023438 12.96015137 -27.57421875 12.32788086 C-25.61268191 11.10787316 -23.64934175 9.89075938 -21.68408203 8.67675781 C-19.38797629 7.24237049 -17.12313322 5.77555868 -14.87109375 4.2734375 C-13.99698853 3.7007312 -13.99698853 3.7007312 -13.10522461 3.11645508 C-11.61682727 2.13920621 -10.13618773 1.15016954 -8.65625 0.16015625 C-5.31847133 -1.29766767 -3.46659633 -0.95832564 0 0 Z M-12 9.25 C-12.69609375 9.68876465 -13.3921875 10.1275293 -14.109375 10.57958984 C-22.50469174 15.90295004 -30.75815285 21.4430842 -39 27 C-38.67 28.32 -38.34 29.64 -38 31 C-32.68074504 30.57487436 -29.21851618 27.61697242 -25.0625 24.5625 C-24.32265869 24.02915039 -23.58281738 23.49580078 -22.82055664 22.94628906 C-21.29494545 21.84595526 -19.77175942 20.74225142 -18.25097656 19.63525391 C-15.44917344 17.59984422 -12.62971867 15.58994009 -9.80834961 13.58178711 C-7.20187354 11.72633533 -4.60098151 9.86314365 -2 8 C-2.495 6.515 -2.495 6.515 -3 5 C-6.45066483 5 -9.15740578 7.44150792 -12 9.25 Z " fill="#85ba45" transform="translate(72,38)"/>
<path d="M0 0 C1.4616156 -0.00956978 1.4616156 -0.00956978 2.95275879 -0.01933289 C4.00797729 -0.02044571 5.0631958 -0.02155853 6.15039062 -0.02270508 C7.23042358 -0.02603348 8.31045654 -0.02936188 9.42321777 -0.03279114 C11.70971245 -0.03786008 13.99621455 -0.04019947 16.28271484 -0.04003906 C19.79211517 -0.04222727 23.30120215 -0.06038825 26.81054688 -0.0793457 C29.02799371 -0.0822792 31.24544205 -0.08426429 33.46289062 -0.08520508 C34.51810913 -0.09239059 35.57332764 -0.09957611 36.66052246 -0.10697937 C38.12213806 -0.10236443 38.12213806 -0.10236443 39.61328125 -0.09765625 C40.47328735 -0.09908127 41.33329346 -0.10050629 42.21936035 -0.10197449 C44.30664062 0.14526367 44.30664062 0.14526367 46.30664062 2.14526367 C45.97664063 3.46526367 45.64664063 4.78526367 45.30664062 6.14526367 C28.47664063 6.14526367 11.64664062 6.14526367 -5.69335938 6.14526367 C-6.02335937 4.49526367 -6.35335937 2.84526367 -6.69335938 1.14526367 C-4.26830997 -0.06726103 -2.70953143 0.01200943 0 0 Z " fill="#85ba45" transform="translate(39.693359375,106.854736328125)"/>
<path d="M0 0 C4.21815766 1.76574042 5.76643292 5.10553657 7.6875 9.125 C8.86310854 12.87225223 9.06432623 14.29598229 7.4375 17.875 C5.15218196 20.81326605 3.53003177 22.01510455 -0.1875 22.5 C-4.12851525 22.02707817 -5.634333 21.03272417 -8.3125 18.125 C-9.73680454 14.80162275 -9.63125624 12.9375159 -8.31640625 9.5859375 C-3.76026336 0.20325748 -3.76026336 0.20325748 0 0 Z M-1.3125 8.125 C-2.74194945 10.47938733 -3.39911261 11.60532433 -2.9375 14.375 C-2.73125 14.9525 -2.525 15.53 -2.3125 16.125 C-0.6625 15.795 0.9875 15.465 2.6875 15.125 C2.03164811 11.51507621 2.03164811 11.51507621 0.6875 8.125 C0.0275 8.125 -0.6325 8.125 -1.3125 8.125 Z " fill="#85ba45" transform="translate(33.3125,10.875)"/>
<path d="M0 0 C2.53515625 0.46875 2.53515625 0.46875 4.3359375 2.15625 C7.85210251 7.53498303 9.62858685 11.01750944 8.53515625 17.46875 C6.49209933 20.53333538 5.09435823 21.29028128 1.59765625 22.40625 C-2.09365107 22.4815828 -3.57745185 21.71449926 -6.46484375 19.46875 C-8.70326832 16.11111315 -8.68652008 14.58326228 -8.0703125 10.67578125 C-6.83223195 6.16277797 -4.94279768 0.93999322 0 0 Z M-0.46484375 8.46875 C-2.79875578 11.24989056 -2.79875578 11.24989056 -2.08984375 14.15625 C-1.88359375 14.919375 -1.67734375 15.6825 -1.46484375 16.46875 C0.52007267 16.20198796 0.52007267 16.20198796 2.53515625 15.46875 C3.86820323 12.57688214 3.86820323 12.57688214 2.59765625 10.28125 C2.24703125 9.683125 1.89640625 9.085 1.53515625 8.46875 C0.87515625 8.46875 0.21515625 8.46875 -0.46484375 8.46875 Z " fill="#85ba45" transform="translate(12.46484375,-0.46875)"/>
<path d="M0 0 C1.32 0.33 2.64 0.66 4 1 C4.35957762 4.77556505 4.11727831 6.76995408 2.375 10.1875 C-0.2631865 13.31166823 -2.1477566 14.66350739 -6 16 C-8.875 15.6875 -8.875 15.6875 -11 15 C-11 13.68 -11 12.36 -11 11 C-9.9275 10.67 -8.855 10.34 -7.75 10 C-3.57348949 8.26331713 -2.36392372 5.67354671 -0.62890625 1.64453125 C-0.31759766 0.83048828 -0.31759766 0.83048828 0 0 Z " fill="#85ba45" transform="translate(111,79)"/>
</svg>